<svg xmlns="http://www.w3.org/2000/svg" xmlns:xlink="http://www.w3.org/1999/xlink" viewBox="0 0 1440 779.76"><defs><style>.cls-1{fill:url(#linear-gradient);}.cls-2{fill:#754a64;}.cls-3{fill:#3c5f7c;}.cls-26,.cls-4,.cls-5{opacity:0.5;}.cls-5,.cls-6{fill:#3f2c36;}.cls-17,.cls-19,.cls-24,.cls-26,.cls-27,.cls-38,.cls-5,.cls-7{isolation:isolate;}.cls-7{fill:#33556d;opacity:0.8;}.cls-8{fill:#151c30;}.cls-9{fill:#101721;}.cls-10{fill:#805066;}.cls-11{fill:#212c44;}.cls-12{fill:#111828;}.cls-13{fill:#101726;}.cls-14{fill:#222642;}.cls-15{fill:#273250;}.cls-16,.cls-17{opacity:0.4;}.cls-17,.cls-19,.cls-20{fill:#e4ddcc;}.cls-18,.cls-19,.cls-27{opacity:0.1;}.cls-21{fill:#4d7087;}.cls-22{fill:#608396;}.cls-23,.cls-26{fill:#f88063;}.cls-24{fill:#fce1d9;opacity:0.7;}.cls-25{fill:#0b111e;}.cls-27,.cls-28{fill:#f4dfbb;}.cls-29{fill:#e0ceb6;}.cls-30{fill:#33242d;}.cls-31{fill:#101728;}.cls-32{fill:#773d3c;}.cls-33{fill:#c16256;}.cls-34{fill:#542f2a;}.cls-35{fill:#7a483f;}.cls-36{fill:#6d5867;}.cls-37{fill:#604a58;}.cls-38{fill:#721;opacity:0.2;}.cls-39{fill:#1b243a;}</style><linearGradient id="linear-gradient" x1="720" y1="537.53" x2="720" y2="-242.24" gradientTransform="matrix(1, 0, 0, -1, 0, 537.53)" gradientUnits="userSpaceOnUse"><stop offset="0" stop-color="#17122a"/><stop offset="0.16" stop-color="#271938"/><stop offset="0.17" stop-color="#281939"/><stop offset="0.26" stop-color="#381f40"/><stop offset="0.42" stop-color="#5c2d51"/><stop offset="0.48" stop-color="#6c3a58"/><stop offset="0.58" stop-color="#965b69"/><stop offset="0.7" stop-color="#cd8780"/><stop offset="0.76" stop-color="#d5978b"/><stop offset="0.86" stop-color="#e8c0a8"/><stop offset="0.89" stop-color="#efceb1"/></linearGradient></defs><title>Asset 2</title><g id="Layer_2" data-name="Layer 2"><g id="Layer_1-2" data-name="Layer 1"><path class="cls-1" d="M1440,0H0V779.76H1440Z"/><path class="cls-2" d="M229.77,418.81l236.41-79.69L688.67,469.55,928.78,336.83l184,121.44,164.4-145,157.91,125.14v70.7H284Z"/><path class="cls-2" d="M437.57,409.42l-170.68,45,31,49.55L720,503.32Z"/><path class="cls-3" d="M268.38,505.52l921.73-1.08L1128,588.76,727.2,622.11,324.67,588.79Z"/><g class="cls-4"><path class="cls-5" d="M703.42,493.18l10.44,4.94,5.27-4.08,2.9,4.08,2.89-3.43,3.41,3.43,2.72-7.69,4.43,8.15,4.26-3.7,3.91,3.7,3.75-8.8,4.43,9.37,8.28-1.9,7,1.9,3.92-1.67,5.79,3.54,7.49,1.93,4.75,2.84-85.68-.29Z"/><path class="cls-5" d="M284,505.52c.3-.3,4.47-21.16,5.06-20.76s3.5,7.05,3.5,7.05l8.17-13.62,2.91,4.9,2.63-.2s2,6,2,6.18,1.46-2.75,1.46-2.75l2.62,3,2.05-3.43,2,2.25,6.42-13.62L327,485.73l10-21.41,11.84,11.42,2.92-4.8,2,7.05,2.92-4.6,4.37,7.84,4.38-11.37,2,13.62,3.5-4.41,3.79,3.43,4.67-13.13L385,481.81l4.38-6.56,5,7.44,2-3.43,2,4.31,2.34-4.11,1.75,3.53,2.62-5.59,2.63,5.78s3.21-2.25,3.5-2,6.42,9,6.42,9l2.62-3.24s3.8,5.29,3.8,5.49,4.37-5.68,3.5-5.49l3.2,2.75,2.34-6.27,3.21,4.41,2.91-3.34,1.75,3.34,2.92-9.61,5,10.49s2.62-3.92,3.21-3.63,3.5,7,3.5,7l2.62-2.84,1.46,4.51L462,491l2.91,6.57,2.92-1.47,2.62,1.17,2.34-8.33,4.08,3.92,3.5-14.3,3.5,7.64,3.21-4.6,4.09,8.22,2.33-1.86,3.5,3.63,2.51,13.88Z"/><path class="cls-5" d="M770.57,492.91,781,497.86l5.28-4.08,2.89,4.08,2.9-3.43,3.4,3.43,2.73-7.7,4.43,8.15,4.25-3.7,3.92,3.7,3.74-8.8,4.43,9.37,8.28-1.9,7,1.9,3.91-1.67,8.88-3.6s7.11-1.1,10.23,1.5,5.56,9.68,5.56,9.68l-91.48,1Z"/><path class="cls-5" d="M488.69,505.4c.3-.3,6.13-18.13,6.71-17.74s3.5,7.06,3.5,7.06l8.17-13.62L510,486l2.62-.2s2,6,2,6.17,1.45-2.74,1.45-2.74l2.63,3,2-3.43,2,2.25,6.42-13.62,11.42,12.87,9.22-23.42,5.32,11.73,2.92-4.81,2,7.06,2.92-4.61,4.38,7.84,4.37-11.36,2,13.61,3.5-4.41,3.8,3.43,4.66-13.13,5.55,12.45,4.37-6.57,5,7.45,2-3.43,2,4.31,2.34-4.11,1.75,3.52,2.62-5.58,2.63,5.78s3.21-2.25,3.5-2,6.42,9,6.42,9l2.62-3.24s3.79,5.29,3.79,5.49,4.38-5.68,3.5-5.49l3.21,2.75,2.34-6.28,3.2,4.41,2.92-3.33,1.75,3.33,2.92-9.6,5,10.48s2.62-3.92,3.21-3.62,3.5,7,3.5,7l2.63-2.84,1.45,4.51,2.34-2.75,2.92,6.56,2.91-1.47,2.63,1.18,2.33-8.33,4.08,3.92,3.5-14.31,3.5,7.65,3.21-4.61,4.09,8.23,2.33-1.86,3.5,3.62,3.54,11Z"/></g><path class="cls-6" d="M1275.7,491.33l10.43,4.95,5.28-4.08,2.9,4.08,2.89-3.44,3.41,3.44,2.72-7.7,4.43,8.15L1312,493l3.92,3.7,3.75-8.8,4.42,9.37,8.28-1.9,7,1.9,3.92-1.67,5.78,3.55,7.5,1.92,4.75,2.84-85.68-.29Z"/><path class="cls-7" d="M289.87,504l441.34,1.79,7.21,0,414.38-1.29,3.57,12.91s-227.62-5.57-257-6.45-417.37-1.15-419.87,0-181.64,6.45-181.64,6.45Z"/><path class="cls-7" d="M314.56,561.6l24.77,20.78,419,41.48,362.17-44.38L1140.05,558,764.7,609.79Z"/><path class="cls-5" d="M862.89,504.79c.29-.3,2.44-21.63,3-21.24s3.5,7.05,3.5,7.05L877.58,477l2.92,4.9,2.62-.2s2,6,2,6.18,1.45-2.75,1.45-2.75l2.63,3,2-3.43,2,2.25,6.42-13.62L904,488.56,910.5,481l4.09,5.24,7-18.09,3.33,9.2,3.71-7.6,2,7,2.91-4.6L938,480l4.38-11.37,2,13.62,3.5-4.41,3.79,3.43,4.67-13.13,5.54,12.44,4.38-6.56,5,7.44,2-3.43,2,4.32,2.33-4.12,1.75,3.53,2.63-5.59,2.62,5.78s3.21-2.25,3.5-2,6.42,9,6.42,9l2.62-3.24s3.8,5.3,3.8,5.49,4.37-5.68,3.5-5.49l3.21,2.75,2.33-6.27,3.21,4.41,2.91-3.34,1.75,3.34,2.92-9.61,5,10.49s2.62-3.92,3.21-3.62,3.5,6.95,3.5,6.95l2.62-2.84,1.46,4.51,2.34-2.75,2.92,6.57,2.91-1.47,2.63,1.17,2.33-8.33,4.08,3.92,3.5-14.3,3.5,7.64,3.21-4.6,4.09,8.23,2.33-1.86,3.5,3.62,2.51,13.88Z"/><path class="cls-6" d="M1342.85,491.06l10.44,4.95,5.27-4.08,2.9,4.08,2.9-3.43,3.4,3.43,2.73-7.7,4.42,8.16,4.26-3.7,3.92,3.7,3.74-8.81,4.43,9.37,8.28-1.9,7,1.9,3.91-1.67,8.88-3.59,4.92-2,10.87,15.49-91.48-1.28Z"/><path class="cls-8" d="M0,471.64l169.3,89.8L720,615.36l474.21-42.49L1440,490.41V779.76H0Z"/><path class="cls-9" d="M305.68,575.5l117.65,12.55,10,21.74-43,2.7,4.8,26.91c-10.45,13.72-89.44-5.67-89.44-5.67s10.91,16.92,16.32,20-41.08,16.46-41.08,16.46L322,686.62l-35.71,31.57s-14.4,15.36,28.27,21.95c68.11,10.51-79,39.62-79,39.62L0,778.11V690.89Z"/><path class="cls-10" d="M933,337.64l-9.34,13.16,14,13.15h-14v14.69l-8.82,5,44.83,37.47,48.43,42.09,182,38-19.77-28.09Z"/><path class="cls-5" d="M1074.76,504.85c.29-.38,4.47-27.24,5-26.73s3.5,9.08,3.5,9.08l8.17-17.54,2.92,6.32,2.62-.26s2,7.7,2,7.95,1.45-3.53,1.45-3.53l2.63,3.91,2-4.42,2,2.9,6.42-17.53,4.21,19.58,6.54-9.76,4.09,6.74,7-23.29,3.33,11.85,3.71-9.79,2,9.08,2.91-5.92,4.38,10.09,4.38-14.63,2,17.53,3.5-5.68,3.79,4.42,4.67-16.9,5.54,16,4.38-8.46,4.95,9.59,2.05-4.41,2,5.55,2.33-5.3,1.75,4.54,2.63-7.19,2.62,7.44s3.21-2.9,3.5-2.52,6.42,11.61,6.42,11.61l2.62-4.17s3.8,6.81,3.8,7.07,4.37-7.32,3.5-7.07l3.21,3.54,2.33-8.08,3.21,5.68,2.91-4.3,1.75,4.3,2.92-12.37,5,13.5s2.62-5,3.21-4.66,3.5,8.95,3.5,8.95l2.62-3.66,1.46,5.8,2.34-3.53,2.92,8.45,2.91-1.89,2.63,1.51,2.33-10.72,4.08,5,3.5-18.42,3.5,9.84,3.21-5.93,4.09,10.6,2.33-2.4,3.5,4.67,2.51,17.87Z"/><path class="cls-6" d="M1172.6,690.75c5.12,0,7.07-.72-2.22-1.47-19.82-1.58-24.34-3.16-28.79-3.5,0,0,55.59-1.42,58.37-1.36,7.12.16,2.49-3.3-6.12-3.52s-60.51-2.76-60.51-2.76,42.67-.74,43-2.59-54.15-6-54.15-6L1182,667s-75.29-3.63-89.94-3.42-55.36,1.83-55.36,1.83l-88.08,3.66,47.81,3.14-26.9,2.33s-61.62,3.29-64.72,4c-17.78,4.08,32,8,18.48,7.39,0,0,50.59,1.66,25.42,2.27-50.92,1.23-75.86-.42-70.68,2.61,5.5,3.23,71,2.11,71,2.11s-60.33,3.28-49.63,5.85c8.13,2,68.93-.69,68.93-.69s-22.76,2.67-22.29,4.53,112,2.59,112,2.59,82.29-1.43,88.31-3.19-4.06-3.93-4.06-3.93l52-1.88c6.69-.26,7.74-1.77-2.71-1.95s-69.21-3.44-69.21-3.44C1166.88,690.76,1149.37,690.51,1172.6,690.75Z"/><path class="cls-8" d="M270.12,418.81l27.74,11.72s-4.44,4.88-9.53,2.88C273.12,427.44,270.12,418.81,270.12,418.81Z"/><path class="cls-8" d="M261.21,357.09l28.66,14s-5.89,2-11,0C263.68,365.09,261.21,357.09,261.21,357.09Z"/><path class="cls-11" d="M185.84,133.7l39.9,97.89-21.33-23,3.33,37.25-25-58.76Z"/><path class="cls-12" d="M185.08,130.68s-9.61,50.56-34.67,78.56c-13.33,14.9,20-12.87,20-12.87l-23.15,33.86,18.91-4.74s-.93,2.62-2.6,6.1c-2.49,5.2-6.63,12.33-11.83,15.58-8.66,5.41,20.67-16.94,20.67-16.94s10.67,18.29,4,27.77,11.27-4.74,8.67-32.51c-1.34-14.22,8,17.61,13.33,25.06,0,0,.67-10.16,0-13.54s9.33,13.54,9.33,13.54S196.41,218,189.19,195.8c-1.56-4.8-5.49-21.83,6.55-9.59C200.41,191,185.08,130.68,185.08,130.68Z"/><path class="cls-12" d="M204.41,208.56l21.33,23-21.33-14.23Z"/><path class="cls-8" d="M205.9,225.2l13.84,27.38-12-9.14Z"/><path class="cls-11" d="M243.23,484.55s88.22,64.7,116.88,79.94c21.6,11.49-30.67,0-30.67,0l38.47,30.56-35.4-12.23,26.57,20.62s-61.22,26.41-81.15-6.39c-5.15-8.47,6.06,25.18,6.06,25.18L247,595l4.77,19.09-23.51-16L236.6,638s-4.86,4.55-16.86.68c-13.87-4.49-15.8-17-15.33-18,1-2.29-1-68.16-8.52-94.62S202,463.43,243.23,484.55Z"/><path class="cls-12" d="M203.31,623.86l25.87-76L249,549.6l-6.56-13.45,33.1,42.24-16.67-63.33s17.28,10.45,28.79,13.49,21.17-3.72,21.17-3.72L278,513,254.87,492.2l-9.5,5.32-6.13,16.21,2.75,9.4-11.13-8.89-86.58,36.38Z"/><path class="cls-11" d="M242.33,418.81S284,475.06,309.5,490.46c14.79,8.93-19.91,0-19.91,0l25,27-23-10.79,17.25,18.2s-42.46-4-53.74-21.57.66,41.11.66,41.11l-19.68-27,3.09,16.84L223.9,520.11l-23.66,65.08s-.18-13.35-7-25.24c-5.87-10.23-15.74-37.1-15.74-37.1.67-2,30.26-43,25.39-66.35S215.56,400.16,242.33,418.81Z"/><path class="cls-12" d="M200.87,531.32l19.36-76.56L241.8,478.2l-7.43-24.09,22.84,32.17-9.63-53.5s14.17,11,25.67,14.05,27.6.53,27.6.53l-37.27-16.11-21.25-12.44-1.5,22.86-16-9.65,2.75,9.39-11.13-8.89-33.71,21.84Z"/><path class="cls-12" d="M173.57,215.85l-12,10.79s-33,40-52.5,50.15,19-2.54,19-2.54-7.53,18.8-24.52,22.35,32.52,9.14,41,0,.46,19-51,45.21c-17.31,8.82,33-2.54,45-9.65,0,0,.37,9-32.5,22.85-20.5,8.64,36-2.54,36-2.54s-11,9.65-12,10.16,16.5-4.57,12.5,4.57,30.83,2.54,40.16,16.26,15.84,10.66,15.84,10.66L186.08,258.5S178.16,217.37,173.57,215.85Z"/><path class="cls-11" d="M225.65,342.44s26.46,52,75.87,70.55c16.14,6.07-19.91,0-19.91,0l16.25,17.54c-2.49,6.06-28.49-11.72-28.49-11.72l31.49,28.55s-42.47-4-53.75-21.56.67,41.11.67,41.11L228.1,440l3.09,16.85-15.26-14.16-15.06,64.8s-31.27-33.6-33-32.38c-13,9.2,31.91-72.67,27-96S198.88,323.8,225.65,342.44Z"/><path class="cls-12" d="M189.66,454.45,215,383.76l18.86,26.67L230,387.82l19,25.51-8.74-45.82s14.16,11,25.67,14.05a27,27,0,0,0,20.36-2.78l-30-12.8L235,353.54l-1.5,22.86-16-9.66,2.75,9.4-11.13-8.89-19.47,27.16Z"/><path class="cls-12" d="M166.49,343.61l-7.35.23S102.47,377,70.61,383.17s30.14,1.26,30.14,1.26-14.1,17.15-41.2,17.3,49.93,15.54,64.38,8.15-1.58,18.92-85.57,34.72c-28.25,5.32,52.12,4,71.83-.63,0,0-.52,9-53.81,16.22-33.23,4.5,56.83,4.64,56.83,4.64s-18.45,7.39-20.08,7.69,26.46-1.25,19.07,7,48.09,8.65,61.08,24.12l.27-30.93,27.32-88.21S173.52,346,166.49,343.61Z"/><path class="cls-11" d="M219.86,286.76s34.51,44.94,65.62,61c17.6,9.1-17.22,0-17.22,0l21.6,23.32L270,361.77l16.3,17s-38.11-4.76-47.87-19.92.57,35.56.57,35.56L222,371.1l2.68,14.58-13.2-12.25s-9.77,33.78-13.47,27.48c-6.56-11.2-15.59-26.94-15.23-28.06.58-1.75,7.83-33.66,3.62-53.85S196.7,270.63,219.86,286.76Z"/><path class="cls-12" d="M182.74,547.23l12.35-61.08S159.4,451.06,150.5,448.4l-.61,4.9.61-4.9S80.33,479.81,40.51,485s37.9,2.24,37.9,2.24-17.17,16.77-51.22,16,63.22,17.22,81.15,10.27c17.33-6.71-.15,17.24-96.12,30.72v5.07c24,.9,65.33.39,79.92-2,0,0-.37,9-67.09,14.54-41.62,3.43,71.54,6.5,71.54,6.5s-26.93,6.39-25,7.07c45,15.8-16.71,22.06-25.74,30.14s106.54-7.93,123.34,8,34.1,10.26,34.1,10.26Z"/><path class="cls-12" d="M197.15,303.37l.82-5.9v41.14s4.29-29.69,9.77-23c4.07,5,11.88,3.45,11.88,3.45l-4.54-10.7h0c3.4,11.36,21.52,18.09,21.52,18.09s-18.2-38.66-11.46-30.51,36.07,3,36.07,3l-25.33-7.63-15.65-13.24-13.09,13.77,2.33,12.7L198,297.46"/><path class="cls-11" d="M205.9,220.07s43.18,43,57.18,53.17-15,0-15,0l18.81,20.32-17.31-8.13,13,13.71s-32-3-40.5-16.25.5,31,.5,31l-14.84-20.31,2.34,12.69-11.5-10.66-6,33.66s-19.52-32.65-19-34.17,12.83-29.83,9.16-47.42S185.72,206,205.9,220.07Z"/><path class="cls-12" d="M190.54,215.85l15.36,45.08V241.47l-11.69-28.8Z"/><path class="cls-12" d="M182.74,314.26l1.47-10.84L200,317.31l-2,21.3L190.54,321Z"/><path class="cls-13" d="M132.57,439.77,173.39,457s-6.53,7.17-14,4.23C137,452.48,132.57,439.77,132.57,439.77Z"/><path class="cls-13" d="M119.45,349l42.17,20.61s-8.66,2.88-16.15-.06C123.09,360.72,119.45,349,119.45,349Z"/><path class="cls-14" d="M8.54,20.23l58.72,144L35.87,130.39l4.91,54.81L4,98.73Z"/><path class="cls-13" d="M40.78,192.18s-16.68-47.84-27.3-80.56c-2.3-7.08-8.08-32.13,9.64-14.12,6.87,7-15.7-81.72-15.7-81.72S5.13,27.81,0,44.86V197.55c4.56-8.91,9.19-23.46,7.42-42.25-2-20.93,11.78,25.92,19.63,36.88,0,0,1-15,0-19.93S40.78,192.18,40.78,192.18Z"/><path class="cls-13" d="M35.87,130.39l31.39,33.88L35.87,143.34Z"/><path class="cls-8" d="M38.06,154.88l20.38,40.29L40.78,181.71Z"/><path class="cls-14" d="M93,536.52s129.82,95.21,172,117.63c31.79,16.91-45.12,0-45.12,0l56.61,45-52.1-18,39.11,30.34s-90.09,38.87-119.43-9.41c-7.57-12.46,8.93,37.06,8.93,37.06l-54.44-40,7,28.1L71,703.61l12.27,58.68s-7.14,6.71-24.8,1c-20.42-6.6-23.25-24.95-22.56-26.51,1.5-3.37-1.51-100.3-12.54-139.23S32.3,505.43,93,536.52Z"/><path class="cls-13" d="M144.14,578.33l-34-30.55-14,7.82-9,23.86,4,13.83L74.79,580.21,0,611.63V699l34.26,42.51L72.32,629.75l29.17,2.49-4.37-16.16,43.41,58.52L116,581.41s25.43,15.37,42.36,19.85S199,602,199,602Z"/><path class="cls-14" d="M198,584.88,161.22,545.2s51.06,13.15,29.29,0C153,522.55,91.68,439.78,91.68,439.78c-39.4-27.44-65.2,21.11-58,55.47,6,28.54-23.08,75-33.64,91.56v15.93c4.88,12.73,13.53,34.44,19.43,44.74,10,17.49,10.3,37.13,10.3,37.13l34.83-95.77L87,609.67l-4.56-24.79,29,39.66s-17.57-86.28-1-60.49,79.08,31.73,79.08,31.73L164.15,569Z"/><path class="cls-13" d="M30.67,605.33,59.15,492.67l31.74,34.5L80,491.72l33.6,47.34L99.4,460.33s20.85,16.21,37.77,20.68,40.63.78,40.63.78L123,458.09,91.68,439.78l-2.21,33.64L65.93,459.21,70,473,53.6,460,4,492.09Z"/><path class="cls-13" d="M8.89,203.89S4.77,182.45,0,164.61V383.47a20.73,20.73,0,0,1,4,4.28c13.73,20.18,23.3,15.7,23.3,15.7Z"/><path class="cls-14" d="M178.77,431.21C106.07,403.87,67.12,327.4,67.12,327.4,27.73,300,14.75,346.9,21.9,381.25c3.36,16.11-9.38,51.13-21.9,82.4v74.61c13.86,13.89,30.67,31.94,30.67,31.94l22.15-95.35,22.46,20.83-4.55-24.79,29,39.66s-17.58-86.28-1-60.49,79.09,31.73,79.09,31.73l-46.33-42s38.26,26.15,41.92,17.25l-23.91-25.82S202.52,440.14,178.77,431.21Z"/><path class="cls-13" d="M14.17,492.22l37.3-104,27.76,39.24-5.69-33.26,27.95,37.53L88.62,364.28s20.85,16.2,37.77,20.68a39.83,39.83,0,0,0,30-4.08L112.17,362,80.9,343.72l-2.21,33.64-23.54-14.2,4,13.83L42.82,363.91l-28.65,40Z"/><path class="cls-13" d="M0,349V488.34l30.67-99S14.48,366.55,0,349Z"/><path class="cls-14" d="M58.6,245.46s50.79,66.12,96.57,89.79c25.9,13.39-25.33,0-25.33,0l31.78,34.32-29.25-13.73,24,25s-56.09-7-70.45-29.32.85,52.33.85,52.33L61.71,369.57,65.65,391,46.23,373s-14.38,49.71-19.81,40.43C16.76,397,3.46,373.79,4,372.14c.84-2.57,11.52-49.52,5.33-79.24S24.52,221.72,58.6,245.46Z"/><path class="cls-13" d="M34.26,741.52,4,628.75l18.17-89.87s-9.89-9.73-22.16-21V737.61C18.64,746.65,34.26,741.52,34.26,741.52Z"/><path class="cls-13" d="M25.18,269.91l1.21-8.69v60.55s6.31-43.7,14.39-33.85c6,7.3,17.48,5.07,17.48,5.07l-6.69-15.74h0c5,16.71,31.66,26.62,31.66,26.62S56.46,247,66.37,259s53.08,4.47,53.08,4.47L82.18,252.21l-23-19.48L39.88,253l3.44,18.69L26.39,261.22"/><path class="cls-14" d="M127.82,255.46l-27.69-29.9s42.67,14.95,22.07,0-84.13-78.23-84.13-78.23C8.38,126.65-1.41,162,4,187.92c2.59,12.43-.26,28.5-4,42.1v46.29C8.12,290.65,18.49,308,18.49,308l8.8-49.54,16.92,15.69-3.43-18.68L62.6,285.35s-13.24-65-.73-45.59,59.59,23.92,59.59,23.92L102.33,243.5Z"/><path class="cls-13" d="M15.46,141.11l22.6,66.34V178.82l-17.2-42.39Z"/><path class="cls-13" d="M4,285.92,6.14,270l23.19,20.43L26.4,321.76,15.46,295.87Z"/><path class="cls-8" d="M1174.67,427.77l-29,13.48a7.94,7.94,0,0,0,8.62,2C1169.55,437.31,1174.67,427.77,1174.67,427.77Z"/><path class="cls-8" d="M1181.46,367l-28.66,14s5.89,2,11,0C1179,375,1181.46,367,1181.46,367Z"/><path class="cls-15" d="M1256.83,143.57l-39.9,97.88,21.33-23-3.33,37.25,25-58.76Z"/><path class="cls-8" d="M1257.59,140.55s9.61,50.56,34.67,78.56c13.33,14.9-20-12.87-20-12.87l23.15,33.86-18.91-4.74s.93,2.61,2.59,6.1c2.5,5.2,6.64,12.33,11.84,15.57,8.66,5.42-20.67-16.93-20.67-16.93s-10.67,18.29-4,27.77-11.28-4.74-8.67-32.51c1.34-14.22-8,17.61-13.33,25.06,0,0-.67-10.16,0-13.54s-9.33,13.54-9.33,13.54,11.33-32.51,18.55-54.75c1.55-4.8,5.49-21.83-6.55-9.59C1242.26,200.82,1257.59,140.55,1257.59,140.55Z"/><path class="cls-8" d="M1238.26,218.43l-21.33,23,21.33-14.22Z"/><path class="cls-8" d="M1236.77,235.07l-13.84,27.38,12-9.14Z"/><path class="cls-15" d="M1199.44,494.42s-88.22,64.7-116.88,79.94c-21.6,11.49,30.67,0,30.67,0l-38.47,30.56,35.4-12.23-26.57,20.62s61.21,26.41,81.15-6.39c5.15-8.47-6.06,25.19-6.06,25.19l37-27.2L1190.9,624l23.51-16-8.34,39.88s3.26,8.81,15.26,4.93c13.88-4.48,17.4-21.21,16.93-22.27-1-2.29,1-68.16,8.52-94.62S1240.68,473.29,1199.44,494.42Z"/><path class="cls-8" d="M1239.36,633.73l-25.87-76-19.82,1.69,6.56-13.45-33.1,42.23,16.67-63.32s-17.28,10.44-28.79,13.49-27.6.53-27.6.53l37.27-16.11,23.12-20.77,9.5,5.32,6.13,16.21-2.75,9.4,11.13-8.89,86.57,36.38Z"/><path class="cls-15" d="M1200.34,428.68s-41.66,56.25-67.17,71.64c-14.79,8.94,19.91,0,19.91,0l-25,27,23-10.79-17.25,18.2s42.46-4,53.74-21.57-.66,41.11-.66,41.11l19.68-27-3.1,16.84L1218.77,530l23.66,65.08s.18-13.35,7-25.24c5.87-10.23,15.73-37.1,15.73-37.1-.66-2-30.25-43-25.38-66.35S1227.11,410,1200.34,428.68Z"/><path class="cls-8" d="M1241.8,541.18l-19.36-76.56-21.57,23.45L1208.3,464l-22.84,32.17,9.62-53.5s-14.16,11-25.66,14.05-26.76,1.29-26.76,1.29l36.42-16.87,21.25-12.44,1.5,22.86,16-9.66-2.75,9.4,11.13-8.89,33.71,21.84Z"/><path class="cls-8" d="M1269.1,225.72l12,10.79s33,40,52.5,50.15-19-2.54-19-2.54,7.53,18.79,24.52,22.35-32.52,9.14-41,0-.46,19,51,45.2c17.31,8.83-33-2.53-45-9.65,0,0-.37,9,32.5,22.86,20.5,8.64-36-2.54-36-2.54s11,9.65,12,10.16-16.5-4.57-12.5,4.57-30.83,2.54-40.16,16.26S1244.09,404,1244.09,404l12.5-135.62S1264.51,227.24,1269.1,225.72Z"/><path class="cls-15" d="M1217,353.16s-26.46,52-75.87,70.55c-16.14,6.07,19.9,0,19.9,0l-16.25,17.54c2.5,6.06,28.5-11.72,28.5-11.72l-31.49,28.55s42.47-4,53.74-21.56-.66,41.11-.66,41.11l19.68-27-3.09,16.85,15.26-14.15,15.06,64.79s31.27-33.59,33-32.38c13,9.2-31.91-72.67-27-96S1243.79,334.52,1217,353.16Z"/><path class="cls-8" d="M1253,464.32l-25.34-70.69L1208.8,420.3l3.86-22.61-19,25.5,8.74-45.82s-14.16,11-25.67,14.06a27.07,27.07,0,0,1-20.37-2.78l30-12.8,23.84-12.44-1.09,22.85,16-9.65-2.75,9.4,11.13-8.89L1253,404.28v60Z"/><path class="cls-8" d="M1284.13,358.62l-.6-4.91s56.67,33.13,88.52,39.33-30.13,1.26-30.13,1.26,14.1,17.15,41.2,17.3-49.93,15.54-64.38,8.15,1.58,18.92,85.57,34.73c28.25,5.31-52.12,4-71.83-.64,0,0,.52,9,53.81,16.22,33.23,4.5-56.83,4.64-56.83,4.64s18.45,7.39,20.08,7.69-26.46-1.25-19.07,7-48.09,8.64-61.08,24.11l-.28-30.93-27.31-88.21s27.35-38.49,34.38-40.91"/><path class="cls-15" d="M1222.81,296.63s-34.51,44.93-65.62,61c-17.6,9.1,17.21,0,17.21,0L1152.8,381l19.88-9.33-16.31,17s38.12-4.76,47.88-19.92-.58,35.56-.58,35.56l17-23.32L1218,395.54l13.2-12.24s9.77,33.78,13.46,27.48c6.56-11.2,15.6-26.94,15.24-28.06-.58-1.75-7.83-33.66-3.62-53.86S1246,280.5,1222.81,296.63Z"/><path class="cls-8" d="M1259.93,557.1,1247.57,496s35.7-35.09,44.6-37.75l.61,4.9-.61-4.9s70.17,31.41,110,36.61-37.9,2.24-37.9,2.24,17.17,16.76,51.22,16-63.22,17.21-81.15,10.27c-17.33-6.71.15,17.24,96.12,30.71v5.08c-24,.9-65.34.39-79.92-2,0,0,.36,9,67.09,14.54,41.62,3.43-71.54,6.5-71.54,6.5s26.92,6.39,25,7.07c-45,15.8,16.71,22.06,25.74,30.13s-106.54-7.93-123.34,8-34.11,10.26-34.11,10.26Z"/><path class="cls-8" d="M1245.52,313.24l-.82-5.9v41.14s-4.29-29.69-9.77-23c-4.07,5-11.89,3.45-11.89,3.45l4.55-10.7h0c-3.4,11.36-21.52,18.09-21.52,18.09s18.2-38.66,11.46-30.51-36.07,3-36.07,3l25.33-7.63L1222.44,288l13.09,13.77-2.33,12.7,11.5-7.12"/><path class="cls-15" d="M1236.77,229.94s-43.18,43-57.18,53.17,15,0,15,0l-18.82,20.31,17.32-8.12-13,13.71s32-3.05,40.5-16.25-.5,31-.5,31l14.84-20.32-2.34,12.7,11.5-10.66,6,33.66s19.52-32.65,19-34.17-12.83-29.83-9.16-47.42S1257,215.89,1236.77,229.94Z"/><path class="cls-8" d="M1252.13,225.72l-15.36,45.08V251.34l11.69-28.8Z"/><path class="cls-8" d="M1259.93,324.13l-1.47-10.84-15.75,13.88,2,21.31,7.43-17.59Z"/><path class="cls-8" d="M1305.85,486.52,1274.08,500s5.08,5.59,10.91,3.3C1302.41,496.41,1305.85,486.52,1305.85,486.52Z"/><path class="cls-8" d="M1316.06,415.83l-32.82,16.05s6.74,2.24,12.57-.05C1313.23,425,1316.06,415.83,1316.06,415.83Z"/><path class="cls-15" d="M1402.39,160l-45.71,112.12,24.44-26.38-3.82,42.67,28.64-67.3Z"/><path class="cls-8" d="M1440,288.87a29,29,0,0,1-4.91-4.93c1.85,1.46,3.54,2.82,4.91,3.94Z"/><path class="cls-8" d="M1377.3,293.8s13-37.24,21.25-62.71c1.79-5.5,6.29-25-7.51-11-5.34,5.43,12.22-63.61,12.22-63.61S1413.51,210.38,1440,243v4.6c-7.85-5.77-19.94-15.84-19.94-15.84L1440,260.91v8l-15.08-3.78s1.06,3,3,7a63.64,63.64,0,0,0,7.2,11.86c-7.46-5.9-17.32-13.41-17.32-13.41s-12.22,20.94-4.58,31.8-12.91-5.42-9.93-37.24c1.53-16.29-9.16,20.18-15.27,28.71,0,0-.77-11.64,0-15.52S1377.3,293.8,1377.3,293.8Z"/><path class="cls-8" d="M1381.12,245.7l-24.44,26.38,24.44-16.29Z"/><path class="cls-8" d="M1379.41,264.76l-15.86,31.37,13.75-10.47Z"/><path class="cls-15" d="M1336.65,561.82s-101.05,74.12-133.87,91.57c-24.74,13.16,35.12,0,35.12,0l-44.06,35,40.55-14L1204,698s70.13,30.26,93-7.32c5.9-9.7-7,28.85-7,28.85l42.38-31.15-5.46,21.87,26.92-18.37-9.55,45.69s5.56,5.21,19.3.77c15.9-5.13,18.11-19.43,17.57-20.64-1.17-2.62,1.17-78.07,9.76-108.37S1383.9,537.63,1336.65,561.82Z"/><path class="cls-8" d="M1296.84,594.38l26.48-23.79,10.88,6.09,7,18.57L1338.08,606l12.74-10.18L1440,633.3v16.6l-57.63,71.49-29.62-87L1330,636.33l7.52-15.41-37.91,48.38,19.09-72.53s-19.8,12-33,15.45-31.62.61-31.62.61Z"/><path class="cls-15" d="M1337.68,486.52S1290,551,1260.75,568.59c-16.94,10.23,22.8,0,22.8,0L1255,599.47l26.32-12.35L1261.51,608s48.64-4.63,61.56-24.7-.76,47.09-.76,47.09l22.54-30.88-3.54,19.3,17.48-16.21,27.1,74.54s.21-15.29,8-28.91c6.73-11.72,18-42.5,18-42.5-.77-2.31-34.66-49.24-29.09-76S1368.35,465.17,1337.68,486.52Z"/><path class="cls-8" d="M1385.17,615.39,1363,527.7l-24.71,26.85L1346.8,527l-26.16,36.85,11-61.28s-16.22,12.61-29.4,16.09-31.62.61-31.62.61l42.69-18.45,24.34-14.25,1.72,26.18,18.32-11.06-3.15,10.77,12.75-10.18,38.62,25Z"/><path class="cls-8" d="M1402.12,302.91s9.07-47.11,14.33-48.86l13.73,12.36s3.86,4.67,9.82,11.4V434.07c-11.5,1.54-27.79,2.75-34.06,12-10.69,15.71-18.14,12.22-18.14,12.22Z"/><path class="cls-15" d="M1356.79,399.05s-30.31,59.53-86.9,80.81c-18.49,6.95,22.8,0,22.8,0L1274.07,500c2.86,6.94,32.64-13.42,32.64-13.42l-36.06,32.7s48.63-4.63,61.55-24.7-.76,47.09-.76,47.09L1354,510.74l-3.55,19.3,17.48-16.21,17.25,74.22S1421,549.56,1423,551c14.92,10.54-36.55-83.24-31-110S1387.46,377.7,1356.79,399.05Z"/><path class="cls-8" d="M1398,527.35l-29-81-21.61,30.54L1351.8,451,1330,480.24l10-52.48s-16.23,12.61-29.4,16.1a31,31,0,0,1-23.33-3.18l34.4-14.67,24.34-14.25,1.72,26.18,18.32-11.05L1363,437.65l12.75-10.18,22.3,31.11v68.77Z"/><path class="cls-8" d="M1424.55,400.39l9.11,5.88-.69-5.62s2.61,1.53,7,4v167.1c-9.94,2.92-18.77,6.66-23.22,12l-.32-35.42-31.29-101S1416.5,403.17,1424.55,400.39Z"/><path class="cls-15" d="M1363.43,335.28s-39.54,51.46-75.17,69.89c-20.16,10.42,19.72,0,19.72,0l-24.74,26.71L1306,421.19l-18.68,19.49s43.65-5.46,54.83-22.83-.66,40.74-.66,40.74l19.5-26.71-3.06,16.69,15.12-14s11.19,38.69,15.42,31.47c7.51-12.82,17.87-30.86,17.45-32.14-.66-2-9-38.55-4.15-61.68S1390,316.8,1363.43,335.28Z"/><path class="cls-8" d="M1405.94,633.62l-14.15-70s34.84-34.24,48.21-41.9V703.15c-8.65,1.31-15.26,3.36-18.56,6.49-19.24,18.27-39.07,11.75-39.07,11.75Z"/><path class="cls-8" d="M1389.44,354.3l-1-6.76v47.13s-4.91-34-11.19-26.35c-4.66,5.69-13.61,3.94-13.61,3.94L1368.9,360h0c-3.9,13-24.65,20.72-24.65,20.72s20.84-44.28,13.13-34.94-41.32,3.49-41.32,3.49l29-8.75L1363,325.36l15,15.78-2.68,14.54,13.18-8.14"/><path class="cls-15" d="M1379.41,258.89s-49.45,49.26-65.49,60.89,17.18,0,17.18,0l-21.55,23.28,19.84-9.31-14.89,15.7s36.65-3.48,46.38-18.61-.57,35.49-.57,35.49l17-23.27-2.67,14.54,13.17-12.22,6.85,38.56s22.36-37.39,21.79-39.14-14.7-34.17-10.5-54.32S1402.52,242.8,1379.41,258.89Z"/><path class="cls-8" d="M1397,254.05l-17.6,51.64V283.4l13.39-33Z"/><path class="cls-8" d="M1405.94,366.77l-1.68-12.41-18,15.9,2.28,24.41,8.52-20.16Z"/><g class="cls-16"><g class="cls-16"><path class="cls-17" d="M380.42,65.49v1.36a2.25,2.25,0,0,0,4.5,0V65.49C384.92,62.55,380.42,62.55,380.42,65.49Z"/></g><g class="cls-16"><path class="cls-17" d="M769.33,74.55c2.91,0,2.91-4.57,0-4.57S766.43,74.55,769.33,74.55Z"/></g><g class="cls-16"><path class="cls-17" d="M430.67,78.62c2.9,0,2.9-4.58,0-4.58S427.77,78.62,430.67,78.62Z"/></g><g class="cls-16"><path class="cls-17" d="M742.41,106.39a6.67,6.67,0,0,0,4.26,2,2.29,2.29,0,0,0,0-4.58c.27,0-.35-.13-.15,0a4.3,4.3,0,0,1-.65-.39c.31.21-.19-.17-.28-.25C743.52,101.09,740.33,104.33,742.41,106.39Z"/></g><g class="cls-16"><path class="cls-17" d="M540,16.31h1.33c2.91,0,2.91-4.57,0-4.57H540C537.1,11.74,537.1,16.31,540,16.31Z"/></g><g class="cls-16"><path class="cls-17" d="M441.33,21.73h1.34c2.9,0,2.9-4.57,0-4.57h-1.34C438.43,17.16,438.43,21.73,441.33,21.73Z"/></g><g class="cls-16"><path class="cls-17" d="M613.75,91.23a3.65,3.65,0,0,0,3.58,3.64,2.27,2.27,0,0,0,2.25-2.29,2.29,2.29,0,0,0-2.25-2.28,1.07,1.07,0,0,1,.93.8c-.21-.55,0,.3,0,.13C618.19,88.29,613.69,88.28,613.75,91.23Z"/></g><g class="cls-16"><path class="cls-17" d="M759.08,26.21c0,.34.13-.69,0-.25-.07.22,0,.17.07-.16a1,1,0,0,1,.81-.52,2.31,2.31,0,0,0-2.25,2.29A2.27,2.27,0,0,0,760,29.85a3.64,3.64,0,0,0,3.58-3.64C763.65,23.26,759.15,23.27,759.08,26.21Z"/></g><g class="cls-16"><path class="cls-17" d="M674.67,36.63H676c2.9,0,2.9-4.58,0-4.58h-1.33C671.77,32.05,671.77,36.63,674.67,36.63Z"/></g><g class="cls-16"><path class="cls-17" d="M781.33,23.08c2.91,0,2.91-4.57,0-4.57S778.43,23.08,781.33,23.08Z"/></g><g class="cls-16"><path class="cls-17" d="M714.67,12.24c2.9,0,2.9-4.57,0-4.57S711.77,12.24,714.67,12.24Z"/></g><g class="cls-16"><path class="cls-17" d="M381.33,17.66a3.63,3.63,0,0,0,2.73-.8,3.77,3.77,0,0,0,.86-2.84c0-2.94-4.5-2.94-4.5,0,0,.17-.11,1.1,0,.35A1.71,1.71,0,0,1,382,13.08c-.22,0-.44,0-.65,0C378.43,13.1,378.43,17.67,381.33,17.66Z"/></g></g><g class="cls-18"><g class="cls-18"><path class="cls-19" d="M463,189v1.36a2.25,2.25,0,0,0,4.5,0V189C467.53,186,463,186,463,189Z"/></g><g class="cls-18"><path class="cls-19" d="M852,198c2.9,0,2.9-4.57,0-4.57S849.05,198,852,198Z"/></g><g class="cls-18"><path class="cls-19" d="M513.28,202.09c2.91,0,2.91-4.58,0-4.58S510.38,202.09,513.28,202.09Z"/></g><g class="cls-18"><path class="cls-19" d="M825,229.86a6.58,6.58,0,0,0,4.25,2,2.27,2.27,0,0,0,2.25-2.28,2.3,2.3,0,0,0-2.25-2.29c.27,0-.34-.13-.14,0a4.3,4.3,0,0,1-.65-.39c.31.21-.2-.17-.28-.25C826.13,224.57,823,227.8,825,229.86Z"/></g><g class="cls-18"><path class="cls-19" d="M622.62,139.78H624c2.9,0,2.9-4.57,0-4.57h-1.33C619.71,135.21,619.71,139.78,622.62,139.78Z"/></g><g class="cls-18"><path class="cls-19" d="M524,145.2h1.33c2.91,0,2.91-4.58,0-4.58H524C521.05,140.62,521.05,145.2,524,145.2Z"/></g><g class="cls-18"><path class="cls-19" d="M696.37,214.7a3.65,3.65,0,0,0,3.58,3.64,2.29,2.29,0,0,0,0-4.57,1.05,1.05,0,0,1,.92.8c-.2-.55,0,.29,0,.13C700.8,211.76,696.3,211.75,696.37,214.7Z"/></g><g class="cls-18"><path class="cls-19" d="M841.7,149.68c0,.34.12-.69,0-.25-.07.22,0,.17.08-.15a1,1,0,0,1,.81-.53,2.31,2.31,0,0,0-2.25,2.29,2.28,2.28,0,0,0,2.25,2.29,3.66,3.66,0,0,0,3.58-3.65C846.27,146.73,841.77,146.74,841.7,149.68Z"/></g><g class="cls-18"><path class="cls-19" d="M757.28,160.1h1.34c2.9,0,2.9-4.57,0-4.57h-1.34C754.38,155.53,754.38,160.1,757.28,160.1Z"/></g><g class="cls-18"><path class="cls-19" d="M864,146.55c2.9,0,2.9-4.57,0-4.57S861.05,146.55,864,146.55Z"/></g><g class="cls-18"><path class="cls-19" d="M797.28,135.72c2.91,0,2.91-4.58,0-4.58S794.38,135.72,797.28,135.72Z"/></g><g class="cls-18"><path class="cls-19" d="M464,141.13a3.59,3.59,0,0,0,2.72-.8,3.77,3.77,0,0,0,.86-2.84c0-2.94-4.49-2.94-4.5,0,0,.17-.1,1.1,0,.35a1.7,1.7,0,0,1,1.53-1.29c-.21,0-.43,0-.65,0C461.05,136.57,461.05,141.14,464,141.13Z"/></g></g><g class="cls-18"><g class="cls-18"><path class="cls-19" d="M873.84,138v1.35a2.25,2.25,0,0,0,4.5,0V138A2.25,2.25,0,0,0,873.84,138Z"/></g><g class="cls-18"><path class="cls-19" d="M1262.76,147c2.9,0,2.9-4.57,0-4.57S1259.86,147,1262.76,147Z"/></g><g class="cls-18"><path class="cls-19" d="M924.09,151.08c2.9,0,2.9-4.57,0-4.57S921.19,151.08,924.09,151.08Z"/></g><g class="cls-18"><path class="cls-19" d="M1235.83,178.86a6.68,6.68,0,0,0,4.26,2,2.27,2.27,0,0,0,2.25-2.28,2.3,2.3,0,0,0-2.25-2.29c.27,0-.34-.13-.15,0a5.2,5.2,0,0,1-.64-.39c.31.21-.2-.17-.28-.26C1236.94,173.56,1233.76,176.79,1235.83,178.86Z"/></g><g class="cls-18"><path class="cls-19" d="M1033.43,88.78h1.33c2.9,0,2.9-4.57,0-4.57h-1.33C1030.52,84.21,1030.52,88.78,1033.43,88.78Z"/></g><g class="cls-18"><path class="cls-19" d="M934.76,94.19h1.33c2.9,0,2.9-4.57,0-4.57h-1.33C931.86,89.62,931.86,94.19,934.76,94.19Z"/></g><g class="cls-18"><path class="cls-19" d="M1107.18,163.7a3.65,3.65,0,0,0,3.58,3.64,2.29,2.29,0,0,0,2.25-2.29,2.31,2.31,0,0,0-2.25-2.29,1.09,1.09,0,0,1,.92.81c-.21-.55,0,.29,0,.13C1111.61,160.75,1107.11,160.75,1107.18,163.7Z"/></g><g class="cls-18"><path class="cls-19" d="M1252.51,98.68c0,.33.12-.7,0-.25-.07.21,0,.16.07-.16a1,1,0,0,1,.82-.52,2.31,2.31,0,0,0-2.25,2.29,2.27,2.27,0,0,0,2.25,2.28,3.65,3.65,0,0,0,3.58-3.64C1257.07,95.73,1252.57,95.74,1252.51,98.68Z"/></g><g class="cls-18"><path class="cls-19" d="M1168.09,109.09h1.34c2.9,0,2.9-4.57,0-4.57h-1.34C1165.19,104.52,1165.19,109.09,1168.09,109.09Z"/></g><g class="cls-18"><path class="cls-19" d="M1274.76,95.55c2.9,0,2.9-4.57,0-4.57S1271.86,95.55,1274.76,95.55Z"/></g><g class="cls-18"><path class="cls-19" d="M1208.09,84.71c2.9,0,2.9-4.57,0-4.57S1205.19,84.71,1208.09,84.71Z"/></g><g class="cls-18"><path class="cls-19" d="M874.76,90.13a3.6,3.6,0,0,0,2.72-.81,3.73,3.73,0,0,0,.86-2.83c0-2.95-4.49-2.95-4.5,0,0,.17-.1,1.1,0,.35a1.71,1.71,0,0,1,1.54-1.29c-.21,0-.44,0-.65,0C871.86,85.56,871.86,90.14,874.76,90.13Z"/></g></g><g class="cls-16"><g class="cls-16"><path class="cls-17" d="M265.59,109.09c2.91,0,2.91-4.57,0-4.57S262.69,109.09,265.59,109.09Z"/></g><g class="cls-16"><path class="cls-17" d="M238.67,140.93a6.67,6.67,0,0,0,4.26,2,2.29,2.29,0,0,0,0-4.58c.27,0-.35-.13-.15,0a4.3,4.3,0,0,1-.65-.39c.31.21-.19-.17-.28-.25C239.78,135.63,236.59,138.87,238.67,140.93Z"/></g><g class="cls-16"><path class="cls-17" d="M36.26,50.85h1.33c2.91,0,2.91-4.57,0-4.57H36.26C33.36,46.28,33.36,50.85,36.26,50.85Z"/></g><g class="cls-16"><path class="cls-17" d="M110,125.77a3.65,3.65,0,0,0,3.58,3.64,2.29,2.29,0,0,0,0-4.57,1.07,1.07,0,0,1,.93.8c-.21-.55,0,.3,0,.13C114.45,122.83,110,122.82,110,125.77Z"/></g><g class="cls-16"><path class="cls-17" d="M255.34,60.75c0,.34.13-.69,0-.25-.07.22,0,.17.07-.16a1,1,0,0,1,.81-.52A2.31,2.31,0,0,0,254,62.11a2.27,2.27,0,0,0,2.25,2.28,3.64,3.64,0,0,0,3.58-3.64C259.91,57.8,255.41,57.81,255.34,60.75Z"/></g><g class="cls-16"><path class="cls-17" d="M170.93,71.17h1.33c2.9,0,2.9-4.58,0-4.58h-1.33C168,66.59,168,71.17,170.93,71.17Z"/></g><g class="cls-16"><path class="cls-17" d="M277.59,57.62c2.91,0,2.91-4.57,0-4.57S274.69,57.62,277.59,57.62Z"/></g><g class="cls-16"><path class="cls-17" d="M210.93,46.78c2.9,0,2.9-4.57,0-4.57S208,46.78,210.93,46.78Z"/></g></g><path class="cls-20" d="M1418.11,25.93c2,0,4-.46,4.17-2.87.13-2-2.87-1.95-3,0,0-.23.43-.32,0-.21a4.67,4.67,0,0,1-1.12,0A1.52,1.52,0,0,0,1418.11,25.93Z"/><path class="cls-20" d="M1169.32,117.33h1.33a1.53,1.53,0,0,0,0-3h-1.33A1.53,1.53,0,0,0,1169.32,117.33Z"/><path class="cls-20" d="M1243.44,13.74a1.52,1.52,0,0,0,0-3A1.52,1.52,0,0,0,1243.44,13.74Z"/><path class="cls-20" d="M1229.34,136.88c0-.07.05-.84,0-.54a1,1,0,0,1-.81.72c.21,0,.43,0,.65,0a1.53,1.53,0,0,0,0-3.05,2.92,2.92,0,0,0-2.2.59,3,3,0,0,0-.64,2.29A1.5,1.5,0,0,0,1229.34,136.88Z"/><path class="cls-20" d="M1390.11,24.58a1.53,1.53,0,0,0,0-3A1.53,1.53,0,0,0,1390.11,24.58Z"/><path class="cls-20" d="M948.61,39.31c0,.19-.41.47-.55.63a3.34,3.34,0,0,0-.78,2.08c-.13,2,2.87,1.95,3,0,0-.19.41-.47.54-.63a3.35,3.35,0,0,0,.79-2.08C951.74,37.35,948.74,37.36,948.61,39.31Z"/><path class="cls-20" d="M1254.11,12.39h1.33a1.53,1.53,0,0,0,0-3.05h-1.33A1.53,1.53,0,0,0,1254.11,12.39Z"/><path class="cls-20" d="M1112.78,20.18h-1.34a1.53,1.53,0,0,0,0,3.05h1.34A1.53,1.53,0,0,0,1112.78,20.18Z"/><path class="cls-20" d="M1355.44,134.3a1.53,1.53,0,0,0,0-3.05A1.53,1.53,0,0,0,1355.44,134.3Z"/><path class="cls-20" d="M1241.17,37.84l-.81-.21c-.49.85-1,1.7-1.46,2.55l1.48.6c1.79.73,2.57-2.22.79-2.94l-1.48-.6c-1.45-.59-2.45,1.54-1.45,2.55a3.57,3.57,0,0,0,2.14,1C1242.25,41.26,1243.05,38.32,1241.17,37.84Z"/><path class="cls-20" d="M1296.78,27.29a1.53,1.53,0,0,0,0-3.05A1.53,1.53,0,0,0,1296.78,27.29Z"/><path class="cls-21" d="M885,569c5.84.14,10.12-3.73.77-4.18s-61.18-3.94-61.18-3.94,70.89-3.8,74.06-3.8c2.83,0-2.71-5.7-12.54-6.27L803.28,546s48.88-6.67,56.77-6c8.49.77-63.87-6.94-63.87-6.94l57.65-5.73-51.44-8.17,89.48-14.39-47.5,1-144,7.74,48.8,9.62-110.46-2.66,42.74,6.85L468,536.05l152.51,8.57S495.35,549.36,498,552.79c2.79,3.59,92.67,10,77.17,8.41,0,0,57.79,4.27,29,5.83-58.16,3.15-180-1.45-171.75,1.56,12.32,4.5,166.46,8.83,166.46,8.83s-86.73,11.7-73.42,11.71,101.12,3.21,101.12,3.21l-45.19,9.25L720,617.17l162.09-15.45-56.78-9.38s51.76-4.16,59.4-4.82,8.85-4.52-3.09-5-82.92-12.09-82.92-12.09S879.13,568.86,885,569Z"/><path class="cls-22" d="M819.89,575.77c3.74.11,6.49-3.13.49-3.5s-39.22-3.3-39.22-3.3,45.45-3.18,47.48-3.18c1.82,0-1.74-4.77-8-5.25l-53.09-4s31.34-5.58,36.39-5c5.45.64-40.94-5.82-40.94-5.82l37-4.79-33-6.83,56.39-6.74L785.5,524H764l-62.46,5.34,31.29,8L662,535.18l27.4,5.74-136.84,7.29,97.77,7.17s-80.23,4-78.52,6.83,59.4,8.4,49.47,7c0,0,37.05,3.57,18.62,4.87-37.29,2.64-115.39-1.21-110.1,1.32,7.89,3.76,106.71,7.38,106.71,7.38s-55.61,9.79-47.08,9.8,64.83,2.68,64.83,2.68l-29,7.74,88.83,13L818,603.15l-36.4-7.85s33.18-3.48,38.08-4,5.67-3.78-2-4.16S764.58,577,764.58,577,816.14,575.65,819.89,575.77Z"/><path class="cls-22" d="M735.25,514.88l93.87-7.44-40.12,12,32.75,7.9L764,524Z"/><path class="cls-23" d="M1053.19,684.1h-18.5s-10.53-6.34-11.27-24.24c-.54-13.11,1.34,1.71,9.32,8.41,3.89,3.26-2.56-6.42-2.68-22.79,0-7.18,2.09-15.42,5.6-24.7,1.22-3.21,11.79,17.9,11,40.56,0,0,4.55-14.34,3.58-27.2s-3.65-24.74-3.41-26.71c.53-4.22,18.5,15.83,18,45s2.92,6.43,5.84,1,8.17-9,5.84-17.31c-1-3.47,5.19,6.63,6.82,22.75,1.95,19.29-9.74,25.22-9.74,25.22h-20.45Z"/><path class="cls-24" d="M1072.32,660.33c1,8-2,16.5-8.13,17.69-1.46.28-2.69-3.08-3-7.79-.68-10.41-9.21-16.6-7.72-12.87,3.08,7.78-4.29,17.38-4.34,19.65-1.08-.94-3.51-3.5-4.77-10-.67-3.47-5.34-9.65-5.34-9.65-2.14,5.66-1.53,12.72-.47,18.17v-.06a16.31,16.31,0,0,1-8.54-5.24c-4.5-4.91,1.83,10,9.81,13.89l1,0,28.58.1C1083.6,674.55,1071.79,656.28,1072.32,660.33Z"/><path class="cls-25" d="M1092,686.62a4.23,4.23,0,0,1-4.2,4.27h-26.94a4.27,4.27,0,0,1,0-8.53h26.94A4.23,4.23,0,0,1,1092,686.62Z"/><path class="cls-25" d="M1054.34,686.62a4.23,4.23,0,0,1-4.2,4.27H1023.2a4.27,4.27,0,0,1,0-8.53h26.94A4.23,4.23,0,0,1,1054.34,686.62Z"/><path class="cls-25" d="M1074.36,690.89a4.23,4.23,0,0,1-4.2,4.27h-26.94a4.27,4.27,0,0,1,0-8.53h26.94A4.23,4.23,0,0,1,1074.36,690.89Z"/><path class="cls-26" d="M1140.05,549.16l-28.14,16.6,22.76.33-22.76,19.64,34.42-2s-32.75,22-43.09,26.08c0,0,26.29-6.08,36.81-14.73s11.53-16.39,11.53-16.39l-26.91.81,19.91-18.89L1121,562.74Z"/><path class="cls-26" d="M1185.71,583.71l-9.56,8.46-5.77,17.62,30.87-21.74v24.44l17.88-20.24-15.8,9.36,1-22.13-28,22.13Z"/><path class="cls-26" d="M1152.22,525.46s34.72-14.66,37.89-24.24c1.45-4.39,6.53,20.54,6.53,31.35,0,3,14-15.18,14-15.18V531.9l11.77-7.88,18.69,46.57L1226,519l-12.51,4.07v-14l-12.41,8.26-7.62-22.23S1170,516.11,1152.22,525.46Z"/><path class="cls-26" d="M1290,549.16l-21.63,18.74,19-1.47-14.66,19.64,14.66-2.36-13.25,18.14s16.59-5.28,21.92-10.36l-10.33,1,7.81-13.84-12.48.81,10.67-16.75h-12.34Z"/><path class="cls-26" d="M1204.69,438.43l-3.82,23.88,17-20.43-.91,16.7,12.92-8.21,14.24,51.1-9.16-57.71L1220,449.61v-16.1l-15.31,16.31Z"/><path class="cls-26" d="M1235.5,663.45l-22.6,13.65,28.9-6.87-28.31,24.92,32,7.92-23-10.16,27.25-26.16L1230.82,669Z"/><path class="cls-26" d="M1218.46,592.62l-5.56,55.84,9-57.9Z"/><path class="cls-26" d="M1255,625.7c-.45.42-47.87,29.11-47.87,29.11l40.17-6.35-11.75,15,18.65-18-30.65,3Z"/><path class="cls-26" d="M1167.13,476.7c.2.68-23.8,18.46-23.8,18.46l21.67-4.82-17,23.19,27.77-28.6-19.39,3.14Z"/><path class="cls-26" d="M1175.77,408.63l-17.09,10.5,8.54-1.35-12.52,18.44,26-13s-26.31,29.26-24.3,27.75c.74-.55,31.3-21.15,31.3-21.15l-11.9,3.72,9.4-14.89-21.84,10.06,9.21-14.82Z"/><path class="cls-26" d="M1211.75,365.54l-1.5,25.15,14.64-20.83L1222.41,386l20.3-19.05-15.12,10.52V363.41l-14.69,13.64Z"/><path class="cls-6" d="M1001.75,708.15c-.56-.57,112.5,0,112.5,0s14.75,4.82,9.25,5.33S1107,716,1107,716l11.5,1.27h-49s-44.24,2-41,0,17.5-4.12,17.5-4.12S1006.5,713,1001.75,708.15Z"/><g class="cls-18"><path class="cls-27" d="M1029,615.19c5-11.17,10-28.44,10-41.65,0-27.42-16-39.62-30-60.95-29-45.71-10.5-89.11,19.5-130.76,29-41.65,34.74-80.65-21.5-147.59,11,8.13,68,21.16,78.63,52.16,13.37,39-10.3,57.2-18.3,80.56-8,20.32-32.66,39.37-30.66,61.72,3,29.46,50.33,36.17,55.33,61.56,5,29.46-20,53.84-25,80.26-4,23.36,13,51.81,1,72.12,3-13.2,7-33.52-7-41.65-14-9.14-27,6.1-30,14.22"/></g><g class="cls-18"><path class="cls-27" d="M1026,360.21c33-42,5.5-81.66-24-98.54,13,14.22,24,32.32,28,51.62C1032,320.4,1031.6,353.48,1026,360.21Z"/></g><g class="cls-18"><path class="cls-27" d="M1082.66,456.17c-9.91,2.79-22.33-4.66-25.33-9.49-7.07-11.36-11.26-22.1-6.67-33.86,10.67-27.34,40.59-46.25,43.33-64.34-2.66,21.68-18.66,38.61-28,56.89C1057.33,422.3,1060,451.43,1082.66,456.17Z"/></g><path class="cls-23" d="M774.24,559.34c-.15,0-.33.28-.11.68l0,0,.08-.16Z"/><path class="cls-23" d="M774.24,559.34v.55C774.43,559.49,774.36,559.33,774.24,559.34Z"/><path class="cls-23" d="M774.16,560.06a1,1,0,0,0,.08.14v-.31Z"/><path class="cls-10" d="M469.6,340.34l-3.44,13.55L455.5,359.3l-9.18,14.9,9.18,5.42s-58.38,37.93-54.39,37.93,36.46-8.13,36.46-8.13l234.36,75.63,16.74-15.5Z"/><path class="cls-28" d="M1156.38,249.87c32.68,0,59.17-26.91,59.17-60.11s-26.49-60.12-59.17-60.12-59.18,26.92-59.18,60.12S1123.69,249.87,1156.38,249.87Z"/><path class="cls-29" d="M1177.89,168.13a10.31,10.31,0,1,0-10.15-10.31A10.23,10.23,0,0,0,1177.89,168.13Z"/><path class="cls-29" d="M1193,182.76a5.11,5.11,0,1,0-5-5.1A5.07,5.07,0,0,0,1193,182.76Z"/><path class="cls-29" d="M1171.76,194.34a6.55,6.55,0,1,0-6.44-6.55A6.5,6.5,0,0,0,1171.76,194.34Z"/><path class="cls-25" d="M832.26,557.61v.79l11.36,129.36-34.83,7.32Z"/><path class="cls-30" d="M832.26,557.19H659.1l-3.11,4.9-91,143.8,170.15,5Z"/><path class="cls-31" d="M735.1,710.93,645,749.21l-242.32,3.41L565,705.89Z"/><path class="cls-31" d="M898.8,673.16l-24.11,3.52,1.16,2.56,23.52-4.11Z"/><path class="cls-32" d="M686.09,731.74c-.62.75.44,1.83,1.06,1.08L748.81,658c-.88.31-1.78.59-2.67.88Z"/><path class="cls-33" d="M832.19,556.22v-1.3a.6.6,0,0,0-.46.21L746.14,658.92c.89-.29,1.8-.57,2.67-.87q14.76-17.89,29.51-35.78l48.42-58.73,4.89-5.92a5.22,5.22,0,0,0,.48-.69l0,0C831.86,556.49,832,556.24,832.19,556.22Z"/><path class="cls-32" d="M893,662.84l-2.27-1,7.21,12.9c.48.86,1.78.09,1.3-.77Z"/><path class="cls-23" d="M832.91,555.28a.79.79,0,0,0-.72-.36v1.3c.12,0,.19.14,0,.55v.31l13.51,24.17,45.06,80.61,2.27,1Z"/><path class="cls-34" d="M515.67,718c-.64.72.42,1.8,1.06,1.07L621.18,601.14c-1,.33-1.9.67-2.87,1Z"/><path class="cls-35" d="M658.57,556.65l-40.26,45.46c1-.3,1.92-.64,2.87-1l38.45-43.41C660.27,557,659.21,555.92,658.57,556.65Z"/><path class="cls-36" d="M832.26,557.61s39.59,106.82,43.59,123.21l-33.34,6.94Z"/><path class="cls-37" d="M808.79,695.35l-74.5,15.84,98-153.73Z"/><path class="cls-38" d="M831.38,558.47,808.79,695.08S767.7,697,761.37,679.23C761.37,679.24,811.69,622.53,831.38,558.47Z"/><path class="cls-23" d="M832.58,557.19,808.79,695.08S781,695.08,776,683.5C776,683.5,815.58,622,832.58,557.19Z"/><path class="cls-39" d="M840,685.29l-25.67-8.09L812,688.86Z"/></g></g></svg>